<svg width="89" height="90" viewBox="0 0 89 90" fill="none" xmlns="http://www.w3.org/2000/svg">
<path d="M83.8227 8.88311L4.51799 89.002C3.91752 89.6086 3.31433 89.939 2.70841 89.9933C2.10249 90.0476 1.49933 89.7714 0.89892 89.1649C0.298514 88.5583 -0.00112731 87.9224 3.18687e-06 87.2571C0.00113368 86.5918 0.301934 85.9559 0.902404 85.3492L80.2071 5.23041L3.45407 5.40055C2.99608 5.26996 2.45701 5.0021 1.83687 4.597C1.21673 4.19189 0.93024 3.57037 0.977398 2.73241C0.930321 2.02065 1.15333 1.4157 1.64641 0.917551C2.1395 0.419402 2.76954 0.114964 3.53652 0.00422893L82.8272 0C83.6555 0.110649 84.4603 0.256164 85.2415 0.436553C86.0239 0.618049 86.7634 1.06078 87.4602 1.76476C88.1582 2.46984 88.5893 3.20981 88.7536 3.98465C88.9179 4.7595 89 5.51001 89 6.23616L88.9958 86.3408C88.9958 87.0049 88.7602 87.6304 88.289 88.2171C87.8178 88.8038 87.1768 89.0639 86.366 88.9976C85.5552 89.064 84.9142 88.8593 84.4431 88.3833C83.972 87.9074 83.8186 87.3096 83.983 86.5901L83.8227 8.88311Z" fill="white"/>
</svg>
