<svg id="Layer_1" height="512" viewBox="0 0 66 66" width="512" xmlns="http://www.w3.org/2000/svg"><g id="XMLID_415_"><g id="XMLID_2286_"><g id="XMLID_2540_"><path id="XMLID_450_" d="m59.7 39.6c0 14-11.4 25.4-25.4 25.4s-25.3-11.4-25.3-25.4c0-6.8 2.7-13.2 7.5-18 .2-.2.4-.3.7-.3h8.1c.4 0 .7.2.9.5l4.3 8.1 2.6-7.9c.1-.4.5-.7 1-.7h17.5c.3 0 .5.1.7.3 4.8 4.8 7.4 11.2 7.4 18z"/></g></g><g id="XMLID_2291_"><g id="XMLID_2292_"><path id="XMLID_447_" d="m30.9 8.1c-.1.3-.3.6-.6.7l-10 4.8 2.7 5.7h-2.2l-2.3-4.9-10 4.8c-.1.1-.3.1-.4.1-.2 0-.3 0-.5-.1-.6-.3-1-.9-1.2-1.7-1.1-4.2 5.7-14.8 6.5-16 .2-.3.6-.5 1-.5 1.4.2 14 1.6 16.5 5.1.4.6.6 1.3.5 2z"/><path id="XMLID_437_" d="m56.8 5.3-10.7 5.5-2 8.5h-2l2.2-9.4c.1-.3.3-.5.5-.7l11.2-5.7c.4-.2 1 0 1.2.5.3.4.1 1-.4 1.3z"/></g></g></g></svg>