<svg width="308" height="323" viewBox="0 0 308 323" fill="none" xmlns="http://www.w3.org/2000/svg">
<path d="M196.645 77.6076C202.94 77.3559 213.035 78.9866 218.944 81.4011C233.908 87.4116 244.78 98.3324 251.423 112.951C257.283 125.849 257.038 139.103 257.05 152.922L257.06 182.846V215.704C257.063 221.533 257.325 227.651 256.945 233.406C255.05 262.05 223.968 270.273 200.773 261.435C188.209 256.51 179.931 244.621 179.221 231.163C178.158 211.03 180.651 190.658 176.649 170.7C173.205 153.526 163.372 138.802 148.244 129.731C146.332 128.585 137.52 122.917 135.485 123.817C134.302 125.136 133.951 127.026 133.395 128.69C130.482 137.396 130.156 145.888 129.514 154.981C128.934 167.846 128.958 180.357 129.006 193.238C129.054 206.326 129.909 220.871 124.453 233.075C118.99 245.059 109.053 254.428 96.7688 259.175C93.3993 260.463 89.9913 261.543 86.448 262.235C77.088 264.063 57.8533 265.383 49.2145 261.448C46.2728 260.108 44.323 257.95 43.2023 254.928C41.5085 250.365 42.1613 179.507 43.142 171.93C44.0023 165.285 46.5553 157.564 49.3583 151.462C55.894 137.235 67.6368 127.295 82.1835 121.935C95.4428 117.048 110.152 116.643 123.908 119.374C126.661 119.92 129.573 120.323 132.129 121.524C132.756 121.818 133.857 122.385 134.565 122.357C135.418 122.325 136.255 119.799 136.572 119.105C139.623 112.423 144.062 105.548 148.957 100.076C157.942 90.0304 169.988 81.9864 183.275 79.1171C187.546 78.1949 192.28 77.8546 196.645 77.6076Z" fill="#FEFEFE"/>
</svg>
