<svg version="1.2" xmlns="http://www.w3.org/2000/svg" viewBox="0 -0.19999999999998863 345.2 345.2" width="1000" height="1000">
	<style>
		.s0 { fill: #ffffff } 
	</style>
	<g id="background">
	</g>
	<g id="logo white">
		<path class="s0" d="m241.92 240.6l1.38-0.09 1.33-0.26 1.29-0.44 1.23-0.61 1.14-0.76 1.03-0.9 0.9-1.03 0.76-1.13 0.6-1.23 0.45-1.3 0.26-1.33 0.09-1.38v-81.71l-0.16-3.72-0.45-3.64-0.75-3.57-1.05-3.51-1.35-3.45-1.61-3.29-1.88-3.15-2.15-3.01-2.37-2.8-2.6-2.59-2.82-2.39-2.99-2.13-3.16-1.87-3.32-1.62-3.42-1.33-3.52-1.04-3.62-0.75-3.64-0.46-3.67-0.14-3.69 0.16-3.64 0.46-3.59 0.76-3.54 1.07-3.41 1.33-3.3 1.62-3.17 1.9-2.98 2.14-2.77 2.37-2.59 2.6-2.41 2.84 3.85 2.18 3.65 2.42 3.44 2.67 3.25 2.92 3.04 3.18 2.8 3.36 2.54 3.56 2.28 3.76 2 3.9 1.71 4.02 1.41 4.17 1.11 4.23 0.79 4.28 0.47 4.35 0.17 4.42v29.35l0.15 3.23 0.42 3.16 0.68 3.09 0.96 3.04 1.23 2.96 1.47 2.83 1.71 2.68 1.95 2.55 2.15 2.35 2.36 2.15 2.54 1.96 2.69 1.71 2.82 1.47 2.97 1.23 3.04 0.96 3.08 0.68 3.16 0.42z"/>
		<path class="s0" d="m103.28 240.6h57.53l3.23-0.14 3.16-0.42 3.09-0.68 3.04-0.96 2.96-1.23 2.83-1.47 2.69-1.71 2.54-1.96 2.35-2.15 2.15-2.35 1.96-2.55 1.71-2.68 1.47-2.83 1.23-2.96 0.96-3.04 0.68-3.09 0.42-3.16 0.15-3.23v-29.35l-0.18-4.26-0.51-4.17-0.83-4.09-1.18-4.03-1.5-3.96-1.79-3.8-2.11-3.64-2.4-3.48-2.66-3.26-2.91-3.02-3.17-2.81-3.36-2.53-3.55-2.24-3.75-1.97-3.86-1.65-3.99-1.32-4.11-1.02-4.14-0.67-4.19-0.34h-4.23l-4.19 0.34-4.15 0.67-4.11 1.02-3.98 1.32-3.87 1.65-3.74 1.97-3.56 2.24-3.36 2.53-3.16 2.81-2.92 3.02-2.65 3.26-2.41 3.48-2.1 3.64-1.8 3.8-1.5 3.96-1.17 4.03-0.84 4.09-0.5 4.17-0.18 4.26v55.5l0.09 1.38 0.27 1.33 0.44 1.3 0.6 1.23 0.76 1.13 0.9 1.03 1.03 0.9 1.14 0.76 1.23 0.61 1.29 0.44 1.33 0.26z"/>
	</g>
</svg>