<svg version="1.2" xmlns="http://www.w3.org/2000/svg" viewBox="0 -0.19999999999998863 345.2 345.2" width="1000" height="1000">
	<style>
		.s0 { fill: #ffffff } 
	</style>
	<g id="logo white">
		<path class="s0" d="m137.28 267.52v-15.69l-0.12-1.71-0.32-1.66-0.55-1.61-0.75-1.53-0.94-1.42-1.12-1.28-1.28-1.13-1.41-0.95-1.53-0.76-1.6-0.56-1.67-0.34-1.7-0.12-1.7 0.1-1.67 0.32-1.62 0.53-1.54 0.74-1.41 0.93-1.3 1.11-1.3-1.11-1.42-0.93-1.53-0.74-1.62-0.53-1.67-0.32-1.7-0.1-1.7 0.12-1.67 0.34-1.61 0.56-1.52 0.76-1.41 0.95-1.28 1.13-1.12 1.28-0.94 1.42-0.75 1.53-0.55 1.61-0.33 1.66-0.11 1.71v15.69h7.85v-15.69l0.17-1.35 0.53-1.26 0.83-1.09 1.08-0.83 1.26-0.52 1.35-0.18 1.36 0.18 1.26 0.52 1.08 0.83 0.83 1.09 0.53 1.26 0.17 1.35v15.69h7.85v-15.69l0.18-1.35 0.52-1.26 0.83-1.09 1.09-0.83 1.26-0.52 1.35-0.18 1.36 0.18 1.26 0.52 1.08 0.83 0.83 1.09 0.52 1.26 0.18 1.35v15.69zm96.8 0v-15.69l0.18-1.35 0.52-1.26 0.83-1.09 1.09-0.83 1.26-0.52 1.35-0.18 1.35 0.18 1.26 0.52 1.09 0.83 0.83 1.09 0.52 1.26 0.18 1.35v15.69h7.85v-15.69l-0.12-1.71-0.33-1.66-0.54-1.61-0.75-1.53-0.95-1.42-1.11-1.28-1.28-1.13-1.41-0.95-1.53-0.76-1.61-0.56-1.66-0.34-1.7-0.12-1.7 0.1-1.68 0.32-1.61 0.53-1.54 0.74-1.41 0.93-1.3 1.11-1.31-1.11-1.41-0.93-1.53-0.74-1.62-0.53-1.67-0.32-1.7-0.1-1.7 0.12-1.67 0.34-1.61 0.56-1.52 0.76-1.41 0.95-1.28 1.13-1.12 1.28-0.94 1.42-0.75 1.53-0.55 1.61-0.33 1.66-0.11 1.71v15.69h7.84v-15.69l0.18-1.35 0.53-1.26 0.83-1.09 1.08-0.83 1.26-0.52 1.35-0.18 1.36 0.18 1.26 0.52 1.08 0.83 0.83 1.09 0.53 1.26 0.17 1.35v15.69zm-77.05 1.31l1.71-0.11 1.68-0.33 1.62-0.56 1.53-0.75 1.42-0.95 1.29-1.13 1.12-1.29 0.96-1.42 0.75-1.53 0.55-1.62 0.33-1.66 0.12-1.72v-15.7h-7.85v15.7l-0.18 1.35-0.52 1.26-0.83 1.08-1.08 0.84-1.26 0.52-1.36 0.18-1.35-0.18-1.26-0.52-1.09-0.84-0.83-1.08-0.52-1.26-0.18-1.35v-15.7h-7.84v15.7l0.11 1.72 0.33 1.66 0.55 1.62 0.76 1.53 0.95 1.42 1.13 1.29 1.28 1.13 1.42 0.95 1.54 0.75 1.62 0.56 1.67 0.33zm44.24-1.31v-7.19h-10.11l-0.9-0.06-0.88-0.16-0.85-0.28-0.82-0.38-0.76-0.48-0.69-0.57-0.62-0.66-0.53-0.72-0.44-0.79-0.33-0.83-0.23-0.87-0.12-0.89-0.01-0.9 0.11-0.89 0.22-0.88 0.32-0.84 0.43-0.79 0.52-0.73 0.6-0.66 0.69-0.58 0.75-0.49 0.81-0.4 0.85-0.28 0.89-0.18 0.89-0.07 0.9 0.04 0.88 0.15 0.86 0.27 0.4 0.21 0.34 0.3 0.24 0.38 0.15 0.43 0.03 0.45-0.08 0.44-0.19 0.41-0.29 0.35-0.36 0.26-0.42 0.17-0.45 0.06h-2.17v6.54h2.47l1.08-0.07 1.05-0.2 1.02-0.33 0.98-0.46 0.91-0.57 0.83-0.68 0.74-0.78 0.63-0.87 0.53-0.94 0.4-0.99 0.27-1.04 0.15-1.07 0.01-1.07-0.13-1.07-0.25-1.04-0.39-1.01-0.5-0.94-0.62-0.88-0.73-0.79-0.82-0.7-0.89-0.58-0.97-0.48-1.73-0.59-1.77-0.36-1.81-0.14-1.81 0.08-1.78 0.32-1.74 0.54-1.65 0.75-1.54 0.96-1.41 1.14-1.26 1.31-1.08 1.46-0.89 1.58-0.68 1.68-0.46 1.75-0.24 1.8-0.02 1.81 0.22 1.81 0.44 1.76 0.66 1.69 0.87 1.59 1.06 1.47 1.23 1.33 1.4 1.16 1.53 0.98 1.64 0.77 1.72 0.56 1.77 0.34 1.82 0.12z"/>
		<path class="s0" d="m241.92 212.61l1.38-0.1 1.33-0.26 1.29-0.44 1.23-0.61 1.14-0.76 1.03-0.9 0.9-1.03 0.76-1.14 0.6-1.22 0.45-1.3 0.26-1.33 0.09-1.38v-81.71l-0.16-3.72-0.45-3.64-0.75-3.57-1.05-3.52-1.35-3.44-1.61-3.29-1.88-3.15-2.15-3.01-2.37-2.8-2.6-2.59-2.82-2.39-2.99-2.13-3.16-1.87-3.32-1.62-3.42-1.33-3.52-1.04-3.62-0.75-3.64-0.46-3.67-0.14-3.69 0.16-3.64 0.46-3.59 0.76-3.54 1.06-3.41 1.34-3.3 1.62-3.17 1.9-2.98 2.14-2.77 2.36-2.59 2.61-2.41 2.84 3.85 2.18 3.65 2.42 3.44 2.67 3.25 2.92 3.04 3.18 2.8 3.36 2.54 3.56 2.28 3.76 2 3.89 1.71 4.03 1.41 4.17 1.11 4.23 0.79 4.28 0.47 4.35 0.17 4.42v29.35l0.15 3.23 0.42 3.16 0.68 3.09 0.96 3.04 1.23 2.96 1.47 2.83 1.71 2.68 1.95 2.55 2.15 2.35 2.36 2.15 2.54 1.96 2.69 1.71 2.82 1.47 2.97 1.23 3.04 0.96 3.08 0.68 3.16 0.42z"/>
		<path class="s0" d="m103.28 212.61h57.53l3.23-0.15 3.16-0.42 3.09-0.68 3.04-0.96 2.96-1.23 2.83-1.47 2.69-1.71 2.54-1.96 2.35-2.15 2.15-2.35 1.96-2.55 1.71-2.68 1.47-2.83 1.23-2.96 0.96-3.04 0.68-3.09 0.42-3.16 0.15-3.23v-29.35l-0.18-4.25-0.51-4.18-0.83-4.09-1.18-4.04-1.5-3.95-1.79-3.8-2.11-3.64-2.4-3.48-2.66-3.25-2.91-3.03-3.17-2.81-3.36-2.53-3.55-2.24-3.75-1.97-3.86-1.65-3.99-1.32-4.11-1.02-4.14-0.67-4.19-0.34h-4.23l-4.19 0.34-4.15 0.67-4.11 1.02-3.98 1.32-3.87 1.65-3.74 1.97-3.56 2.24-3.36 2.53-3.16 2.81-2.92 3.02-2.65 3.26-2.41 3.48-2.1 3.64-1.8 3.8-1.5 3.95-1.17 4.04-0.84 4.09-0.5 4.18-0.18 4.25v55.5l0.09 1.38 0.27 1.33 0.44 1.3 0.6 1.22 0.76 1.14 0.9 1.03 1.03 0.9 1.14 0.76 1.23 0.61 1.29 0.44 1.33 0.26z"/>
	</g>
</svg>