<svg version="1.2" xmlns="http://www.w3.org/2000/svg" viewBox="0 0 250 80" width="1500" height="480">
	<style>
		.s0 { fill: #ffffff } 
	</style>
	<g id="background">
	</g>
	<g id="logo white">
		<path class="s0" d="m86.5 52.4v-15.69l-0.11-1.72-0.33-1.65-0.55-1.62-0.75-1.52-0.94-1.42-1.12-1.29-1.28-1.12-1.41-0.96-1.52-0.76-1.61-0.55-1.67-0.34-1.7-0.13-1.7 0.1-1.67 0.32-1.62 0.54-1.53 0.74-1.41 0.92-1.31 1.12-1.3-1.12-1.41-0.92-1.54-0.74-1.62-0.54-1.67-0.32-1.7-0.1-1.7 0.13-1.67 0.34-1.61 0.55-1.52 0.76-1.41 0.96-1.28 1.12-1.12 1.29-0.94 1.42-0.75 1.52-0.55 1.62-0.32 1.65-0.12 1.72v15.69h7.85v-15.69l0.18-1.36 0.52-1.26 0.83-1.08 1.08-0.83 1.26-0.52 1.36-0.18 1.35 0.18 1.26 0.52 1.09 0.83 0.83 1.08 0.52 1.26 0.18 1.36v15.69h7.84v-15.69l0.18-1.36 0.53-1.26 0.83-1.08 1.08-0.83 1.26-0.52 1.35-0.18 1.36 0.18 1.26 0.52 1.08 0.83 0.83 1.08 0.53 1.26 0.18 1.36v15.69zm96.79 0v-15.69l0.18-1.36 0.52-1.26 0.84-1.08 1.08-0.83 1.26-0.52 1.35-0.18 1.36 0.18 1.26 0.52 1.08 0.83 0.83 1.08 0.53 1.26 0.17 1.36v15.69h7.85v-15.69l-0.11-1.72-0.33-1.65-0.55-1.62-0.75-1.52-0.94-1.42-1.12-1.29-1.28-1.12-1.41-0.96-1.52-0.76-1.61-0.55-1.67-0.34-1.7-0.13-1.7 0.1-1.67 0.32-1.62 0.54-1.53 0.74-1.42 0.92-1.3 1.12-1.3-1.12-1.42-0.92-1.53-0.74-1.62-0.54-1.67-0.32-1.7-0.1-1.7 0.13-1.67 0.34-1.61 0.55-1.52 0.76-1.41 0.96-1.28 1.12-1.12 1.29-0.94 1.42-0.75 1.52-0.55 1.62-0.32 1.65-0.12 1.72v15.69h7.85v-15.69l0.18-1.36 0.52-1.26 0.83-1.08 1.08-0.83 1.26-0.52 1.36-0.18 1.35 0.18 1.26 0.52 1.09 0.83 0.83 1.08 0.52 1.26 0.18 1.36v15.69zm-77.06 1.31l1.71-0.12 1.68-0.33 1.62-0.55 1.53-0.76 1.42-0.95 1.29-1.12 1.13-1.29 0.95-1.42 0.75-1.54 0.56-1.62 0.33-1.66 0.11-1.72v-15.69h-7.84v15.69l-0.18 1.35-0.53 1.27-0.83 1.08-1.08 0.83-1.26 0.52-1.36 0.18-1.35-0.18-1.26-0.52-1.08-0.83-0.83-1.08-0.53-1.27-0.18-1.35v-15.69h-7.84v15.69l0.11 1.72 0.33 1.66 0.56 1.62 0.75 1.54 0.95 1.42 1.13 1.29 1.29 1.12 1.42 0.95 1.53 0.76 1.62 0.55 1.68 0.33zm44.23-1.3v-7.2h-10.1l-0.91-0.05-0.87-0.17-0.86-0.28-0.81-0.38-0.76-0.48-0.7-0.57-0.62-0.65-0.53-0.73-0.43-0.78-0.34-0.84-0.23-0.87-0.12-0.89v-0.9l0.1-0.89 0.22-0.87 0.32-0.84 0.43-0.79 0.52-0.73 0.61-0.67 0.68-0.58 0.76-0.49 0.81-0.39 0.85-0.29 0.88-0.18 0.89-0.07 0.9 0.04 0.88 0.16 0.87 0.26 0.4 0.22 0.33 0.3 0.24 0.38 0.15 0.42 0.03 0.45-0.08 0.45-0.19 0.41-0.28 0.34-0.37 0.27-0.42 0.17-0.44 0.05h-2.17v6.54h2.47l1.08-0.07 1.05-0.2 1.02-0.33 0.97-0.45 0.91-0.57 0.83-0.69 0.74-0.78 0.64-0.86 0.52-0.94 0.4-1 0.28-1.04 0.14-1.06 0.01-1.08-0.12-1.06-0.26-1.05-0.38-1-0.51-0.95-0.62-0.88-0.73-0.79-0.82-0.69-0.89-0.59-0.97-0.48-1.73-0.59-1.76-0.36-1.81-0.14-1.81 0.09-1.79 0.32-1.73 0.54-1.65 0.75-1.55 0.95-1.41 1.14-1.25 1.31-1.08 1.46-0.89 1.58-0.68 1.68-0.47 1.76-0.24 1.8-0.01 1.81 0.21 1.8 0.44 1.76 0.66 1.69 0.87 1.6 1.06 1.47 1.24 1.32 1.39 1.16 1.53 0.98 1.64 0.78 1.72 0.56 1.77 0.34 1.83 0.12z"/>
	</g>
</svg>